<svg width="261" height="64" viewBox="0 0 261 64" fill="none" xmlns="http://www.w3.org/2000/svg">
<path d="M32.6627 26.0912C33.4824 25.2425 33.9359 24.1058 33.9257 22.9259C33.9154 21.7461 33.4422 20.6174 32.6078 19.7831C31.7735 18.9487 30.6449 18.4755 29.465 18.4652C28.2851 18.455 27.1484 18.9085 26.2997 19.7283M46.0997 34.4995H7.52116C7.22684 34.4992 6.9405 34.5951 6.70572 34.7726C6.47095 34.9501 6.30062 35.1995 6.22066 35.4828L3.16966 46.276C2.98053 46.9451 2.94903 47.6489 3.07764 48.3323C3.20624 49.0156 3.49144 49.6598 3.91086 50.2144C4.33029 50.769 4.87252 51.2189 5.49502 51.5287C6.11752 51.8385 6.80334 51.9998 7.49866 52H45.1007C45.796 51.9998 46.4818 51.8385 47.1043 51.5287C47.7268 51.2189 48.269 50.769 48.6885 50.2144C49.1079 49.6598 49.3931 49.0156 49.5217 48.3323C49.6503 47.6489 49.6188 46.9451 49.4297 46.276L46.0997 34.4995ZM46.0997 34.4995V20.752V34.4995ZM6.49966 34.4995V11.5C6.49966 10.3065 6.97377 9.16193 7.81768 8.31802C8.66159 7.47411 9.80619 7 10.9997 7H26.2997L6.49966 34.4995ZM24.0497 45.25H28.5497H24.0497ZM39.0279 13.363L32.6627 19.7283L39.0279 13.363ZM45.3909 13.363C44.9758 13.7928 44.4792 14.1356 43.9302 14.3715C43.3812 14.6073 42.7907 14.7314 42.1932 14.7366C41.5957 14.7418 41.0031 14.628 40.4501 14.4017C39.8971 14.1754 39.3946 13.8413 38.9721 13.4188C38.5496 12.9963 38.2155 12.4938 37.9892 11.9408C37.7629 11.3878 37.6491 10.7952 37.6543 10.1977C37.6595 9.60019 37.7836 9.0097 38.0195 8.46068C38.2553 7.91166 38.5981 7.41511 39.0279 7L45.3909 13.363Z" stroke="black" stroke-width="4.375" stroke-linecap="round" stroke-linejoin="round"/>
<path d="M67.9226 46V11.0909H81.6953C84.3317 11.0909 86.5817 11.5625 88.4453 12.5057C90.3203 13.4375 91.7465 14.7614 92.7237 16.4773C93.7124 18.1818 94.2067 20.1875 94.2067 22.4943C94.2067 24.8125 93.7067 26.8068 92.7067 28.4773C91.7067 30.1364 90.2578 31.4091 88.3601 32.2955C86.4737 33.1818 84.1897 33.625 81.5078 33.625H72.2862V27.6932H80.3147C81.7237 27.6932 82.8942 27.5 83.826 27.1136C84.7578 26.7273 85.451 26.1477 85.9056 25.375C86.3715 24.6023 86.6044 23.642 86.6044 22.4943C86.6044 21.3352 86.3715 20.358 85.9056 19.5625C85.451 18.767 84.7522 18.1648 83.809 17.7557C82.8772 17.3352 81.701 17.125 80.2806 17.125H75.3033V46H67.9226ZM86.7749 30.1136L95.451 46H87.3033L78.8147 30.1136H86.7749ZM110.796 46.5114C108.103 46.5114 105.785 45.9659 103.842 44.875C101.91 43.7727 100.421 42.2159 99.3757 40.2045C98.3303 38.1818 97.8076 35.7898 97.8076 33.0284C97.8076 30.3352 98.3303 27.9716 99.3757 25.9375C100.421 23.9034 101.893 22.3182 103.791 21.1818C105.7 20.0455 107.938 19.4773 110.506 19.4773C112.234 19.4773 113.842 19.7557 115.33 20.3125C116.83 20.858 118.137 21.6818 119.251 22.7841C120.376 23.8864 121.251 25.2727 121.876 26.9432C122.501 28.6023 122.813 30.5455 122.813 32.7727V34.767H100.705V30.267H115.978C115.978 29.2216 115.751 28.2955 115.296 27.4886C114.842 26.6818 114.211 26.0511 113.404 25.5966C112.609 25.1307 111.683 24.8977 110.626 24.8977C109.523 24.8977 108.546 25.1534 107.694 25.6648C106.853 26.1648 106.194 26.8409 105.717 27.6932C105.239 28.5341 104.995 29.4716 104.984 30.5057V34.7841C104.984 36.0795 105.222 37.1989 105.7 38.142C106.188 39.0852 106.876 39.8125 107.762 40.3239C108.648 40.8352 109.7 41.0909 110.916 41.0909C111.722 41.0909 112.461 40.9773 113.131 40.75C113.802 40.5227 114.376 40.1818 114.853 39.7273C115.33 39.2727 115.694 38.7159 115.944 38.0568L122.66 38.5C122.319 40.1136 121.62 41.5227 120.563 42.7273C119.518 43.9205 118.166 44.8523 116.506 45.5227C114.859 46.1818 112.955 46.5114 110.796 46.5114ZM144.342 34.8523V19.8182H151.603V46H144.631V41.2443H144.359C143.768 42.7784 142.785 44.0114 141.41 44.9432C140.046 45.875 138.381 46.3409 136.416 46.3409C134.666 46.3409 133.126 45.9432 131.796 45.1477C130.467 44.3523 129.427 43.2216 128.677 41.7557C127.938 40.2898 127.563 38.5341 127.552 36.4886V19.8182H134.813V35.1932C134.825 36.7386 135.239 37.9602 136.058 38.858C136.876 39.7557 137.972 40.2045 139.347 40.2045C140.222 40.2045 141.041 40.0057 141.802 39.608C142.563 39.1989 143.177 38.5966 143.643 37.8011C144.12 37.0057 144.353 36.0227 144.342 34.8523ZM179.195 27.2841L172.548 27.6932C172.434 27.125 172.19 26.6136 171.815 26.1591C171.44 25.6932 170.945 25.3239 170.332 25.0511C169.729 24.767 169.008 24.625 168.167 24.625C167.042 24.625 166.093 24.8636 165.32 25.3409C164.548 25.8068 164.161 26.4318 164.161 27.2159C164.161 27.8409 164.411 28.3693 164.911 28.8011C165.411 29.233 166.269 29.5795 167.485 29.8409L172.224 30.7955C174.769 31.3182 176.667 32.1591 177.917 33.3182C179.167 34.4773 179.792 36 179.792 37.8864C179.792 39.6023 179.286 41.108 178.275 42.4034C177.275 43.6989 175.9 44.7102 174.15 45.4375C172.411 46.1534 170.406 46.5114 168.133 46.5114C164.667 46.5114 161.906 45.7898 159.849 44.3466C157.803 42.892 156.604 40.9148 156.252 38.4148L163.394 38.0398C163.61 39.0966 164.133 39.9034 164.962 40.4602C165.792 41.0057 166.854 41.2784 168.15 41.2784C169.423 41.2784 170.445 41.0341 171.218 40.5455C172.002 40.0455 172.4 39.4034 172.411 38.6193C172.4 37.9602 172.121 37.4205 171.576 37C171.031 36.5682 170.19 36.2386 169.053 36.0114L164.519 35.108C161.962 34.5966 160.059 33.7102 158.809 32.4489C157.57 31.1875 156.951 29.5795 156.951 27.625C156.951 25.9432 157.406 24.4943 158.315 23.2784C159.235 22.0625 160.525 21.125 162.184 20.4659C163.854 19.8068 165.809 19.4773 168.048 19.4773C171.354 19.4773 173.957 20.1761 175.854 21.5739C177.764 22.9716 178.877 24.875 179.195 27.2841ZM200.677 28.7841V34.5455H184.756V28.7841H200.677ZM218.796 46.5114C216.103 46.5114 213.785 45.9659 211.842 44.875C209.91 43.7727 208.421 42.2159 207.376 40.2045C206.33 38.1818 205.808 35.7898 205.808 33.0284C205.808 30.3352 206.33 27.9716 207.376 25.9375C208.421 23.9034 209.893 22.3182 211.791 21.1818C213.7 20.0455 215.938 19.4773 218.506 19.4773C220.234 19.4773 221.842 19.7557 223.33 20.3125C224.83 20.858 226.137 21.6818 227.251 22.7841C228.376 23.8864 229.251 25.2727 229.876 26.9432C230.501 28.6023 230.813 30.5455 230.813 32.7727V34.767H208.705V30.267H223.978C223.978 29.2216 223.751 28.2955 223.296 27.4886C222.842 26.6818 222.211 26.0511 221.404 25.5966C220.609 25.1307 219.683 24.8977 218.626 24.8977C217.523 24.8977 216.546 25.1534 215.694 25.6648C214.853 26.1648 214.194 26.8409 213.717 27.6932C213.239 28.5341 212.995 29.4716 212.984 30.5057V34.7841C212.984 36.0795 213.222 37.1989 213.7 38.142C214.188 39.0852 214.876 39.8125 215.762 40.3239C216.648 40.8352 217.7 41.0909 218.916 41.0909C219.722 41.0909 220.461 40.9773 221.131 40.75C221.802 40.5227 222.376 40.1818 222.853 39.7273C223.33 39.2727 223.694 38.7159 223.944 38.0568L230.66 38.5C230.319 40.1136 229.62 41.5227 228.563 42.7273C227.518 43.9205 226.166 44.8523 224.506 45.5227C222.859 46.1818 220.955 46.5114 218.796 46.5114Z" fill="black"/>
</svg>
